# Exported from DAZ Studio 4.22
mtllib passive.mtl

o pCube(11cg000)1
v -50 -50 50
v 50 -50 50
v -50 50 50
v 50 50 50
v 50 -50 -50
v -50 -50 -50
v 50 50 -50
v -50 50 -50
vt 0 0
vt 0.33000001 0
vt 0 0.5
vt 0.33000001 0.5
vt 0.66000003 0
vt 0.99000001 0
vt 0.66000003 0.5
vt 0.99000001 0.5
vt 0.66000003 0.5
vt 0.99000001 0.5
vt 0.99000001 1
vt 0.66000003 1
vt 0.33000001 1
vt 0 1
vt 0.33000001 0.5
vt 0.66000003 0.5
vt 0.66000003 1
vt 0.33000001 1
vn 0 0 0.9983114
vn -0.9983114 0 0
vn 0 -0.9983114 0
vn 0 0 0.9983114
vn 0.9983114 0 0
vn 0 -0.9983114 0
vn 0 0 0.9983114
vn -0.9983114 0 0
vn 0 0.9983114 0
vn 0 0 0.9983114
vn 0.9983114 0 0
vn 0 0.9983114 0
vn 0 0 -0.9983114
vn 0.9983114 0 0
vn 0 -0.9983114 0
vn 0 0 -0.9983114
vn -0.9983114 0 0
vn 0 -0.9983114 0
vn 0 0 -0.9983114
vn 0.9983114 0 0
vn 0 0.9983114 0
vn 0 0 -0.9983114
vn -0.9983114 0 0
vn 0 0.9983114 0
usemtl Default
f 1/1/1 2/2/4 4/4/10 3/3/7
f 5/5/13 6/6/16 8/8/22 7/7/19
f 6/9/17 1/10/2 3/11/8 8/12/23
f 2/2/5 5/5/14 7/7/20 4/4/11
f 3/3/9 4/4/12 7/13/21 8/14/24
f 6/15/18 5/16/15 2/17/6 1/18/3
